<svg class="w-[24px] h-[24px] lg:w-[30px] lg:h-[30px]" viewBox="0 0 1024 1024" version="1.1" xmlns="http://www.w3.org/2000/svg" p-id="4000" width="64" height="64"><path d="M697.984 598.016l144 0q11.989333-56.021333 11.989333-86.016t-11.989333-86.016l-144 0q6.016 41.984 6.016 86.016t-6.016 86.016zM621.994667 834.005333q121.984-40.021333 185.984-152.021333l-125.994667 0q-20.010667 80-59.989333 152.021333zM612.010667 598.016q6.016-41.984 6.016-86.016t-6.016-86.016l-200.021333 0q-6.016 41.984-6.016 86.016t6.016 86.016l200.021333 0zM512 852.010667q56.021333-82.005333 82.005333-169.984l-164.010667 0q25.984 88.021333 82.005333 169.984zM342.016 342.016q20.010667-80 59.989333-152.021333-121.984 40.021333-185.984 152.021333l125.994667 0zM216.021333 681.984q64 112 185.984 152.021333-40.021333-72.021333-59.989333-152.021333l-125.994667 0zM182.016 598.016l144 0q-6.016-41.984-6.016-86.016t6.016-86.016l-144 0q-11.989333 56.021333-11.989333 86.016t11.989333 86.016zM512 171.989333q-56.021333 82.005333-82.005333 169.984l164.010667 0q-25.984-88.021333-82.005333-169.984zM808.021333 342.016q-64-112-185.984-152.021333 40.021333 72.021333 59.989333 152.021333l125.994667 0zM512 86.016q176 0 301.013333 125.013333t125.013333 301.013333-125.013333 301.013333-301.013333 125.013333-301.013333-125.013333-125.013333-301.013333 125.013333-301.013333 301.013333-125.013333z" fill="#000000" p-id="4001"></path></svg>